<?xml version="1.0" encoding="utf-8"?>
<!-- Generator: Adobe Illustrator 18.1.1, SVG Export Plug-In . SVG Version: 6.00 Build 0)  -->
<svg version="1.1" id="Layer_1" xmlns="http://www.w3.org/2000/svg" xmlns:xlink="http://www.w3.org/1999/xlink" x="0px" y="0px"
	 viewBox="0 0 83.8 106" enable-background="new 0 0 83.8 106" xml:space="preserve">
<g>
	<polygon fill="none" points="39.2,15.1 43.4,15.1 41.3,11.2 	"/>
	<g>
		<path d="M65.8,95.2c-0.5,2.2-0.2,4.1,0.8,5.8c1,1.7,2.4,2.7,4.1,3.1c1.6,0.4,3.3,0,4.9-1.1c1.6-1.1,2.7-2.7,3.2-4.9
			c0.5-2.2,0.3-4.1-0.7-5.8c-1-1.7-2.3-2.7-4.1-3.1c-1.7-0.4-3.3-0.1-4.9,1C67.3,91.2,66.3,92.9,65.8,95.2z"/>
		<path d="M45.3,104.9h9.1c-0.9-1.2-1.6-2.5-2-3.9c-0.3-1-0.5-2-0.7-3l-4.4-1L45.3,104.9z"/>
		<polygon points="37.8,83.6 41.4,68.1 24.7,80.6 		"/>
		<path d="M75.9,81.2c1.6,0.4,3,0.1,4.2-0.7c1.2-0.8,2-2,2.4-3.6c0-0.2,0.1-0.4,0.1-0.6v-2c-0.1-0.7-0.3-1.3-0.7-1.9
			c-0.8-1.3-2-2.1-3.7-2.5c-1.7-0.4-3.1-0.2-4.4,0.6c-1.3,0.8-2.1,2-2.5,3.7c-0.4,1.7-0.2,3.2,0.6,4.5
			C72.8,79.9,74.1,80.8,75.9,81.2z"/>
		<path d="M30.5,11.3h-5v2.5h5.1c1,0,1.5-0.4,1.5-1.2C32.2,11.7,31.6,11.3,30.5,11.3z"/>
		<g>
			<path d="M1.3,1.3v103.6h31.4l2.7-10.7l-24.9-5.7l2.6-11.2l31.7-23.9l11.9,2.7l-6.9,30.2l4.5,1c0.4-0.6,0.9-1.2,1.5-1.8
				c1.8-1.7,4.2-2.8,7.3-3.2c-1.9-1.6-3.2-3.3-3.8-4.9c-0.9-2.2-1.1-4.6-0.5-7.1c0.9-4.1,3.7-7,8.1-8.8c3.5-1.3,7.7-1.4,12.7-0.3
				c1.1,0.3,2.1,0.5,3.1,0.8V1.3H1.3z M19.4,17.9c-0.8,0.5-2.1,0.8-3.6,0.8c-2.2,0-4-0.5-5.4-1.5l0.9-1.2c1.2,0.8,2.7,1.3,4.4,1.3
				c1,0,1.7-0.1,2.3-0.4c0.5-0.3,0.8-0.6,0.8-1c0-0.5-0.3-0.8-1-1c-0.4-0.1-0.9-0.2-1.7-0.2c-1.2-0.1-2-0.1-2.2-0.1
				c-1.1-0.1-1.9-0.3-2.4-0.7c-0.5-0.4-0.8-0.9-0.8-1.6c0-0.8,0.4-1.5,1.2-2c0.8-0.5,2-0.7,3.4-0.7c2,0,3.6,0.4,4.8,1.3l-1.1,1.1
				C18,11.3,16.7,11,15.4,11c-1.9,0-2.9,0.3-2.9,1c0,0.4,0.4,0.7,1.1,0.8c1,0.1,2,0.2,3,0.3c1.4,0.1,2.5,0.4,3.1,0.8
				c0.7,0.4,1,1,1,1.9C20.6,16.7,20.2,17.4,19.4,17.9z M33.1,14.6c-0.6,0.5-1.4,0.7-2.5,0.7h-5.1v3.2h-1.7V9.7h7.1
				c0.9,0,1.7,0.3,2.2,0.8c0.6,0.5,0.8,1.2,0.8,2C33.9,13.4,33.6,14.1,33.1,14.6z M45.2,18.5l-1-1.9h-5.9l-1,1.9h-1.9l4.8-8.7h2.1
				l4.8,8.7H45.2z M52.2,16.3c0.7,0.6,1.7,0.9,3,0.9c1.5,0,2.7-0.5,3.6-1.4l1.5,0.8c-1.3,1.5-3,2.2-5.1,2.2c-1.7,0-3.2-0.4-4.2-1.3
				c-1.1-0.9-1.6-2-1.6-3.3c0-1.4,0.6-2.6,1.8-3.5c1.1-0.8,2.4-1.2,3.9-1.2c2.2,0,3.9,0.8,5.2,2.4l-1.6,0.5
				c-0.9-0.9-2.1-1.4-3.6-1.4c-1.2,0-2.2,0.3-3,0.9c-0.7,0.6-1.1,1.3-1.1,2.2C51.1,15,51.5,15.8,52.2,16.3z M73.2,18.5h-9.4V9.7h9.1
				v1.5h-7.4v1.9h5.1v1.5h-5.1v2.2h7.7V18.5z"/>
			<polygon points="39.2,15.1 43.4,15.1 41.3,11.2 			"/>
		</g>
	</g>
</g>
</svg>
